{
  "accessors": [
    {
      "bufferView": 2,
      "componentType": 5126,
      "count": 2673,
      "max": [
        0.8839200139045715,
        7.494444370269775,
        6.063755512237549
      ],
      "min": [
        -0.8839200139045715,
        -0.019085710868239403,
        -5.897554397583008
      ],
      "type": "VEC3"
    },
    {
      "bufferView": 2,
      "byteOffset": 32076,
      "componentType": 5126,
      "count": 2673,
      "max": [
        0.9999662637710571,
        1.0,
        0.9999808073043823
      ],
      "min": [
        -0.9999662637710571,
        -0.9999998807907104,
        -0.9998894929885864
      ],
      "type": "VEC3"
    },
    {
      "bufferView": 3,
      "componentType": 5126,
      "count": 2673,
      "max": [
        0.999989926815033,
        0.9999808073043823,
        0.9999998807907104,
        1.0
      ],
      "min": [
        -0.9999902248382568,
        -0.9975405335426331,
        -0.9999907612800598,
        -1.0
      ],
      "type": "VEC4"
    },
    {
      "bufferView": 1,
      "componentType": 5126,
      "count": 2673,
      "max": [
        0.9996799826622009,
        0.9983599781990051
      ],
      "min": [
        0.002630000002682209,
        0.002650022506713867
      ],
      "type": "VEC2"
    },
    {
      "bufferView": 1,
      "byteOffset": 21384,
      "componentType": 5126,
      "count": 2673,
      "max": [
        0.9996799826622009,
        0.9983599781990051
      ],
      "min": [
        0.002630000002682209,
        0.002650022506713867
      ],
      "type": "VEC2"
    },
    {
      "bufferView": 0,
      "componentType": 5125,
      "count": 14118,
      "type": "SCALAR"
    }
  ],
  "asset": {
    "extras": {
      "author": "Jurassic Radassic (https://sketchfab.com/Radassic)",
      "license": "CC-BY-4.0 (http://creativecommons.org/licenses/by/4.0/)",
      "source": "https://sketchfab.com/3d-models/dinosaur-hunting-brachiosaurus-1cdf709299dc436b91fd74c2857703b1",
      "title": "Dinosaur Hunting Brachiosaurus"
    },
    "generator": "Sketchfab-17.7.0",
    "version": "2.0"
  },
  "bufferViews": [
    {
      "buffer": 0,
      "byteLength": 56472,
      "name": "floatBufferViews",
      "target": 34963
    },
    {
      "buffer": 0,
      "byteLength": 42768,
      "byteOffset": 56472,
      "byteStride": 8,
      "name": "floatBufferViews",
      "target": 34962
    },
    {
      "buffer": 0,
      "byteLength": 64152,
      "byteOffset": 99240,
      "byteStride": 12,
      "name": "floatBufferViews",
      "target": 34962
    },
    {
      "buffer": 0,
      "byteLength": 42768,
      "byteOffset": 163392,
      "byteStride": 16,
      "name": "floatBufferViews",
      "target": 34962
    }
  ],
  "buffers": [
    {
      "byteLength": 206160,
      "uri": "scene.bin"
    }
  ],
  "images": [
    {
      "uri": "textures/Brachio_baseColor.png"
    },
    {
      "uri": "textures/Brachio_normal.png"
    }
  ],
  "materials": [
    {
      "doubleSided": true,
      "name": "Brachio",
      "normalTexture": {
        "index": 1
      },
      "pbrMetallicRoughness": {
        "baseColorTexture": {
          "index": 0
        },
        "metallicFactor": 0.0,
        "roughnessFactor": 0.8308205978495098
      }
    }
  ],
  "meshes": [
    {
      "name": "Brachiosaur_Brachio_0",
      "primitives": [
        {
          "attributes": {
            "NORMAL": 1,
            "POSITION": 0,
            "TANGENT": 2,
            "TEXCOORD_0": 3,
            "TEXCOORD_1": 4
          },
          "indices": 5,
          "material": 0,
          "mode": 4
        }
      ]
    }
  ],
  "nodes": [
    {
      "children": [
        1
      ],
      "matrix": [
        1.0,
        0.0,
        0.0,
        0.0,
        0.0,
        2.220446049250313e-16,
        -1.0,
        0.0,
        0.0,
        1.0,
        2.220446049250313e-16,
        0.0,
        0.0,
        0.0,
        0.0,
        1.0
      ],
      "name": "Sketchfab_model"
    },
    {
      "children": [
        2
      ],
      "matrix": [
        0.009999999776482582,
        0.0,
        0.0,
        0.0,
        0.0,
        0.0,
        0.009999999776482582,
        0.0,
        0.0,
        -0.009999999776482582,
        0.0,
        0.0,
        0.0,
        0.0,
        0.0,
        1.0
      ],
      "name": "Brachiosaurus.fbx"
    },
    {
      "children": [
        3
      ],
      "name": "RootNode"
    },
    {
      "children": [
        4
      ],
      "matrix": [
        100.0,
        0.0,
        0.0,
        0.0,
        0.0,
        99.99999999999866,
        1.6292067073209114e-05,
        0.0,
        0.0,
        -1.6292067073209114e-05,
        99.99999999999866,
        0.0,
        0.0,
        0.0,
        0.0,
        1.0
      ],
      "name": "Brachiosaur"
    },
    {
      "mesh": 0,
      "name": "Brachiosaur_Brachio_0"
    }
  ],
  "samplers": [
    {
      "magFilter": 9729,
      "minFilter": 9987,
      "wrapS": 10497,
      "wrapT": 10497
    }
  ],
  "scene": 0,
  "scenes": [
    {
      "name": "Sketchfab_Scene",
      "nodes": [
        0
      ]
    }
  ],
  "textures": [
    {
      "sampler": 0,
      "source": 0
    },
    {
      "sampler": 0,
      "source": 1
    }
  ]
}
