{
  "accessors": [
    {
      "bufferView": 2,
      "componentType": 5126,
      "count": 1164,
      "max": [
        0.8951964378356934,
        6.411672115325928,
        2.2073442935943604
      ],
      "min": [
        -0.8916759490966797,
        -3.3743443489074707,
        -1.2187449932098389
      ],
      "type": "VEC3"
    },
    {
      "bufferView": 2,
      "byteOffset": 13968,
      "componentType": 5126,
      "count": 1164,
      "max": [
        0.999600887298584,
        0.9873561263084412,
        0.9994258880615234
      ],
      "min": [
        -0.9996367692947388,
        -0.9954333901405334,
        -0.9999496936798096
      ],
      "type": "VEC3"
    },
    {
      "bufferView": 1,
      "componentType": 5126,
      "count": 1164,
      "max": [
        9.903260231018066,
        10.261492729187012
      ],
      "min": [
        -8.011905670166016,
        -8.261492729187012
      ],
      "type": "VEC2"
    },
    {
      "bufferView": 0,
      "componentType": 5125,
      "count": 5232,
      "type": "SCALAR"
    },
    {
      "bufferView": 2,
      "byteOffset": 27936,
      "componentType": 5126,
      "count": 283,
      "max": [
        0.5647404193878174,
        6.136702537536621,
        3.2683441638946533
      ],
      "min": [
        -0.506884753704071,
        -2.1884238719940186,
        0.30134317278862
      ],
      "type": "VEC3"
    },
    {
      "bufferView": 2,
      "byteOffset": 31332,
      "componentType": 5126,
      "count": 283,
      "max": [
        0.9987929463386536,
        0.9204211235046387,
        0.9779828786849976
      ],
      "min": [
        -0.9970661997795105,
        -0.9573508501052856,
        -0.8787975311279297
      ],
      "type": "VEC3"
    },
    {
      "bufferView": 1,
      "byteOffset": 9312,
      "componentType": 5126,
      "count": 283,
      "max": [
        0.9965205192565918,
        1.0237643718719482
      ],
      "min": [
        -0.05609467998147011,
        0.07765662670135498
      ],
      "type": "VEC2"
    },
    {
      "bufferView": 0,
      "byteOffset": 20928,
      "componentType": 5125,
      "count": 954,
      "type": "SCALAR"
    }
  ],
  "asset": {
    "extras": {
      "author": "Jurassic Radassic (https://sketchfab.com/Radassic)",
      "license": "CC-BY-4.0 (http://creativecommons.org/licenses/by/4.0/)",
      "source": "https://sketchfab.com/3d-models/dinosaur-world-stegosaurus-05227bd7da2044cb91e34759a97c44ce",
      "title": "Dinosaur World Stegosaurus"
    },
    "generator": "Sketchfab-17.7.0",
    "version": "2.0"
  },
  "bufferViews": [
    {
      "buffer": 0,
      "byteLength": 24744,
      "name": "floatBufferViews",
      "target": 34963
    },
    {
      "buffer": 0,
      "byteLength": 11576,
      "byteOffset": 24744,
      "byteStride": 8,
      "name": "floatBufferViews",
      "target": 34962
    },
    {
      "buffer": 0,
      "byteLength": 34728,
      "byteOffset": 36320,
      "byteStride": 12,
      "name": "floatBufferViews",
      "target": 34962
    }
  ],
  "buffers": [
    {
      "byteLength": 71048,
      "uri": "scene.bin"
    }
  ],
  "images": [
    {
      "uri": "textures/Stegosaur_baseColor.png"
    },
    {
      "uri": "textures/Plate_baseColor.png"
    }
  ],
  "materials": [
    {
      "doubleSided": true,
      "name": "Stegosaur",
      "pbrMetallicRoughness": {
        "baseColorTexture": {
          "index": 0
        },
        "metallicFactor": 0.0,
        "roughnessFactor": 0.8308205978495098
      }
    },
    {
      "doubleSided": true,
      "name": "Plate",
      "pbrMetallicRoughness": {
        "baseColorTexture": {
          "index": 1
        },
        "metallicFactor": 0.0,
        "roughnessFactor": 0.8308205978495098
      }
    }
  ],
  "meshes": [
    {
      "name": "Stegosaurus_Stegosaur_0",
      "primitives": [
        {
          "attributes": {
            "NORMAL": 1,
            "POSITION": 0,
            "TEXCOORD_0": 2
          },
          "indices": 3,
          "material": 0,
          "mode": 4
        }
      ]
    },
    {
      "name": "Stegosaurus_Plate_0",
      "primitives": [
        {
          "attributes": {
            "NORMAL": 5,
            "POSITION": 4,
            "TEXCOORD_0": 6
          },
          "indices": 7,
          "material": 1,
          "mode": 4
        }
      ]
    }
  ],
  "nodes": [
    {
      "children": [
        1
      ],
      "matrix": [
        1.0,
        0.0,
        0.0,
        0.0,
        0.0,
        2.220446049250313e-16,
        -1.0,
        0.0,
        0.0,
        1.0,
        2.220446049250313e-16,
        0.0,
        0.0,
        0.0,
        0.0,
        1.0
      ],
      "name": "Sketchfab_model"
    },
    {
      "children": [
        2
      ],
      "matrix": [
        0.009999999776482582,
        0.0,
        0.0,
        0.0,
        0.0,
        0.0,
        0.009999999776482582,
        0.0,
        0.0,
        -0.009999999776482582,
        0.0,
        0.0,
        0.0,
        0.0,
        0.0,
        1.0
      ],
      "name": "Stegosaurus.fbx"
    },
    {
      "children": [
        3
      ],
      "name": "RootNode"
    },
    {
      "children": [
        4,
        5
      ],
      "matrix": [
        100.0,
        0.0,
        0.0,
        0.0,
        0.0,
        -1.629206793918314e-05,
        -99.99999999999868,
        0.0,
        0.0,
        99.99999999999868,
        -1.629206793918314e-05,
        0.0,
        0.0,
        0.0,
        0.0,
        1.0
      ],
      "name": "Stegosaurus"
    },
    {
      "mesh": 0,
      "name": "Stegosaurus_Stegosaur_0"
    },
    {
      "mesh": 1,
      "name": "Stegosaurus_Plate_0"
    }
  ],
  "samplers": [
    {
      "magFilter": 9729,
      "minFilter": 9987,
      "wrapS": 10497,
      "wrapT": 10497
    }
  ],
  "scene": 0,
  "scenes": [
    {
      "name": "Sketchfab_Scene",
      "nodes": [
        0
      ]
    }
  ],
  "textures": [
    {
      "sampler": 0,
      "source": 0
    },
    {
      "sampler": 0,
      "source": 1
    }
  ]
}
