{
  "accessors": [
    {
      "bufferView": 2,
      "componentType": 5126,
      "count": 628,
      "max": [
        7.116000175476074,
        0.5495930910110474,
        7.009000301361084
      ],
      "min": [
        -7.116000175476074,
        -0.18740688264369965,
        -3.013000011444092
      ],
      "type": "VEC3"
    },
    {
      "bufferView": 2,
      "byteOffset": 7536,
      "componentType": 5126,
      "count": 628,
      "max": [
        0.999614953994751,
        0.9999985694885254,
        0.9992580413818359
      ],
      "min": [
        -0.999614953994751,
        -0.9999996423721313,
        -0.9890590310096741
      ],
      "type": "VEC3"
    },
    {
      "bufferView": 1,
      "componentType": 5126,
      "count": 628,
      "max": [
        0.9964500069618225,
        0.9910100102424622
      ],
      "min": [
        0.019619999453425407,
        0.008019983768463135
      ],
      "type": "VEC2"
    },
    {
      "bufferView": 0,
      "componentType": 5125,
      "count": 2688,
      "type": "SCALAR"
    }
  ],
  "asset": {
    "extras": {
      "author": "Jurassic Radassic (https://sketchfab.com/Radassic)",
      "license": "CC-BY-4.0 (http://creativecommons.org/licenses/by/4.0/)",
      "source": "https://sketchfab.com/3d-models/dinosaur-hunting-rhamphorhynchus-d619e7e64edb435abd9e9a554782d49a",
      "title": "Dinosaur Hunting Rhamphorhynchus"
    },
    "generator": "Sketchfab-17.8.0",
    "version": "2.0"
  },
  "bufferViews": [
    {
      "buffer": 0,
      "byteLength": 10752,
      "name": "floatBufferViews",
      "target": 34963
    },
    {
      "buffer": 0,
      "byteLength": 5024,
      "byteOffset": 10752,
      "byteStride": 8,
      "name": "floatBufferViews",
      "target": 34962
    },
    {
      "buffer": 0,
      "byteLength": 15072,
      "byteOffset": 15776,
      "byteStride": 12,
      "name": "floatBufferViews",
      "target": 34962
    }
  ],
  "buffers": [
    {
      "byteLength": 30848,
      "uri": "scene.bin"
    }
  ],
  "images": [
    {
      "uri": "textures/Rhamp_baseColor.png"
    }
  ],
  "materials": [
    {
      "alphaMode": "BLEND",
      "doubleSided": true,
      "name": "Rhamp",
      "pbrMetallicRoughness": {
        "baseColorTexture": {
          "index": 0
        },
        "metallicFactor": 0.0,
        "roughnessFactor": 0.8308205978495098
      }
    }
  ],
  "meshes": [
    {
      "name": "Rhamphorhynchus_Rhamp_0",
      "primitives": [
        {
          "attributes": {
            "NORMAL": 1,
            "POSITION": 0,
            "TEXCOORD_0": 2
          },
          "indices": 3,
          "material": 0,
          "mode": 4
        }
      ]
    }
  ],
  "nodes": [
    {
      "children": [
        1
      ],
      "matrix": [
        1.0,
        0.0,
        0.0,
        0.0,
        0.0,
        2.220446049250313e-16,
        -1.0,
        0.0,
        0.0,
        1.0,
        2.220446049250313e-16,
        0.0,
        0.0,
        0.0,
        0.0,
        1.0
      ],
      "name": "Sketchfab_model"
    },
    {
      "children": [
        2
      ],
      "matrix": [
        0.009999999776482582,
        0.0,
        0.0,
        0.0,
        0.0,
        0.0,
        0.009999999776482582,
        0.0,
        0.0,
        -0.009999999776482582,
        0.0,
        0.0,
        0.0,
        0.0,
        0.0,
        1.0
      ],
      "name": "Rhamphorhynchus.fbx"
    },
    {
      "children": [
        3
      ],
      "name": "RootNode"
    },
    {
      "children": [
        4
      ],
      "matrix": [
        100.0,
        0.0,
        0.0,
        0.0,
        0.0,
        99.99999999999866,
        1.6292067073209114e-05,
        0.0,
        0.0,
        -1.6292067073209114e-05,
        99.99999999999866,
        0.0,
        0.0,
        0.0,
        0.0,
        1.0
      ],
      "name": "Rhamphorhynchus"
    },
    {
      "mesh": 0,
      "name": "Rhamphorhynchus_Rhamp_0"
    }
  ],
  "samplers": [
    {
      "magFilter": 9729,
      "minFilter": 9987,
      "wrapS": 10497,
      "wrapT": 10497
    }
  ],
  "scene": 0,
  "scenes": [
    {
      "name": "Sketchfab_Scene",
      "nodes": [
        0
      ]
    }
  ],
  "textures": [
    {
      "sampler": 0,
      "source": 0
    }
  ]
}
